<mxfile host="app.diagrams.net" agent="Mozilla/5.0 (Windows NT 10.0; Win64; x64) AppleWebKit/537.36 (KHTML, like Gecko) Chrome/125.0.0.0 Safari/537.36 Edg/125.0.0.0" etag="FpzXfj3-j3l9qCAOajA5" version="24.4.15" type="device"><diagram name="Page-1" id="v7eHjkcJA2HYL1TbYpuy"><mxGraphModel dx="1575" dy="924" grid="1" gridSize="10" guides="1" tooltips="1" connect="1" arrows="1" fold="1" page="1" pageScale="1" pageWidth="1169" pageHeight="827" math="0" shadow="0"><root><mxCell id="0" /><mxCell id="1" parent="0" /><mxCell id="8b7bcfc29c3645dd99522e38476bdbb4" value="Worker N1" style="shape=image;image=https://github.com/karth123/diagrams_natviz/blob/master/resources/aws/compute/elastic-container-service.png?raw=True" vertex="1" parent="1"><mxGeometry x="205.2" y="118" width="70" height="95" as="geometry" /></mxCell><mxCell id="4b3cf30a08f844c1bb7ba741afc23341" value="Worker N2" style="shape=image;image=https://github.com/karth123/diagrams_natviz/blob/master/resources/aws/compute/elastic-container-service.png?raw=True" vertex="1" parent="1"><mxGeometry x="205.2" y="298" width="70" height="95" as="geometry" /></mxCell><mxCell id="4610f52fb29241a4a9bb69c398b1f738" value="Worker N3" style="shape=image;image=https://github.com/karth123/diagrams_natviz/blob/master/resources/aws/compute/elastic-container-service.png?raw=True" vertex="1" parent="1"><mxGeometry x="205.2" y="478" width="70" height="95" as="geometry" /></mxCell><mxCell id="f18228a0bd1f43a8a152aa0e192faa66" value="Processing Lambda N1" style="shape=image;image=https://github.com/karth123/diagrams_natviz/blob/master/resources/aws/compute/lambda.png?raw=True" vertex="1" parent="1"><mxGeometry x="514.8" y="478" width="70" height="95" as="geometry" /></mxCell><mxCell id="31c18780213a4ddc9686e50e4af90972" value="Processing Lambda N2" style="shape=image;image=https://github.com/karth123/diagrams_natviz/blob/master/resources/aws/compute/lambda.png?raw=True" vertex="1" parent="1"><mxGeometry x="514.8" y="118" width="70" height="95" as="geometry" /></mxCell><mxCell id="7760dc1f2e2c4b97868b3b14c9464cdc" value="Processing Lambda N3" style="shape=image;image=https://github.com/karth123/diagrams_natviz/blob/master/resources/aws/compute/lambda.png?raw=True" vertex="1" parent="1"><mxGeometry x="514.8" y="298" width="70" height="95" as="geometry" /></mxCell><mxCell id="04f5cf628dad4348ab7dc04d7b83d306" value="Events Queue" style="shape=image;image=https://github.com/karth123/diagrams_natviz/blob/master/resources/aws/integration/simple-queue-service-sqs.png?raw=True" vertex="1" parent="1"><mxGeometry x="360" y="298" width="70" height="95" as="geometry" /></mxCell><mxCell id="3c38cdd1aeaa4bbb89d5d24bf481e1b7" value="Web Service" style="shape=image;image=https://github.com/karth123/diagrams_natviz/blob/master/resources/aws/compute/elastic-kubernetes-service.png?raw=True" vertex="1" parent="1"><mxGeometry x="50.4" y="298" width="70" height="95" as="geometry" /></mxCell><mxCell id="0719e79f77734157a33899989d39cf25" value="Events Storage" style="shape=image;image=https://github.com/karth123/diagrams_natviz/blob/master/resources/aws/storage/simple-storage-service-s3.png?raw=True" vertex="1" parent="1"><mxGeometry x="669.6" y="388" width="70" height="95" as="geometry" /></mxCell><mxCell id="c4296e0d54ad48eb9d3dc153b5885fb5" value="Events Analytics" style="shape=image;image=https://github.com/karth123/diagrams_natviz/blob/master/resources/aws/database/redshift.png?raw=True" vertex="1" parent="1"><mxGeometry x="669.6" y="208" width="70" height="95" as="geometry" /></mxCell><mxCell id="edge10" style="edgeStyle=orthogonalEdgeStyle;" edge="1" parent="1" source="04f5cf628dad4348ab7dc04d7b83d306" target="f18228a0bd1f43a8a152aa0e192faa66"><mx_Geometry relative="1" as="geometry"><Array as="points"><mxPoint x="377" y="366.04" /><mxPoint x="377" y="408.52" /><mxPoint x="377" y="455.2" /><mxPoint x="453.15" y="455.2" /></Array></mx_Geometry></mxCell><mxCell id="edge11" style="edgeStyle=orthogonalEdgeStyle;" edge="1" parent="1" source="04f5cf628dad4348ab7dc04d7b83d306" target="31c18780213a4ddc9686e50e4af90972"><mx_Geometry relative="1" as="geometry"><Array as="points"><mxPoint x="377" y="229.96" /><mxPoint x="377" y="187.48" /><mxPoint x="377" y="140.8" /><mxPoint x="453.15" y="140.8" /></Array></mx_Geometry></mxCell><mxCell id="edge12" style="edgeStyle=orthogonalEdgeStyle;" edge="1" parent="1" source="04f5cf628dad4348ab7dc04d7b83d306" target="7760dc1f2e2c4b97868b3b14c9464cdc"><mx_Geometry relative="1" as="geometry"><Array as="points"><mxPoint x="410.26" y="298" /><mxPoint x="453.01" y="298" /></Array></mx_Geometry></mxCell><mxCell id="edge1" style="edgeStyle=orthogonalEdgeStyle;" edge="1" parent="1" source="8b7bcfc29c3645dd99522e38476bdbb4" target="04f5cf628dad4348ab7dc04d7b83d306"><mx_Geometry relative="1" as="geometry"><Array as="points"><mxPoint x="255.31" y="95.2" /><mxPoint x="295.07" y="95.2" /><mxPoint x="344" y="95.2" /><mxPoint x="344" y="218.11" /></Array></mx_Geometry></mxCell><mxCell id="edge2" style="edgeStyle=orthogonalEdgeStyle;" edge="1" parent="1" source="4b3cf30a08f844c1bb7ba741afc23341" target="04f5cf628dad4348ab7dc04d7b83d306"><mx_Geometry relative="1" as="geometry"><Array as="points"><mxPoint x="255.46" y="298" /><mxPoint x="298.21" y="298" /></Array></mx_Geometry></mxCell><mxCell id="edge3" style="edgeStyle=orthogonalEdgeStyle;" edge="1" parent="1" source="4610f52fb29241a4a9bb69c398b1f738" target="04f5cf628dad4348ab7dc04d7b83d306"><mx_Geometry relative="1" as="geometry"><Array as="points"><mxPoint x="255.31" y="500.8" /><mxPoint x="295.07" y="500.8" /><mxPoint x="344" y="500.8" /><mxPoint x="344" y="377.89" /></Array></mx_Geometry></mxCell><mxCell id="edge13" style="edgeStyle=orthogonalEdgeStyle;" edge="1" parent="1" source="3c38cdd1aeaa4bbb89d5d24bf481e1b7" target="8b7bcfc29c3645dd99522e38476bdbb4"><mx_Geometry relative="1" as="geometry"><Array as="points"><mxPoint x="51" y="229.69" /><mxPoint x="51" y="178.77" /><mxPoint x="51" y="118" /><mxPoint x="143.62" y="118" /></Array></mx_Geometry></mxCell><mxCell id="edge14" style="edgeStyle=orthogonalEdgeStyle;" edge="1" parent="1" source="3c38cdd1aeaa4bbb89d5d24bf481e1b7" target="4b3cf30a08f844c1bb7ba741afc23341"><mx_Geometry relative="1" as="geometry"><Array as="points"><mxPoint x="100.66" y="298" /><mxPoint x="143.41" y="298" /></Array></mx_Geometry></mxCell><mxCell id="edge15" style="edgeStyle=orthogonalEdgeStyle;" edge="1" parent="1" source="3c38cdd1aeaa4bbb89d5d24bf481e1b7" target="4610f52fb29241a4a9bb69c398b1f738"><mx_Geometry relative="1" as="geometry"><Array as="points"><mxPoint x="51" y="366.31" /><mxPoint x="51" y="417.23" /><mxPoint x="51" y="478" /><mxPoint x="143.62" y="478" /></Array></mx_Geometry></mxCell><mxCell id="edge4" style="edgeStyle=orthogonalEdgeStyle;" edge="1" parent="1" source="f18228a0bd1f43a8a152aa0e192faa66" target="0719e79f77734157a33899989d39cf25"><mx_Geometry relative="1" as="geometry"><Array as="points"><mxPoint x="565.06" y="440.8" /><mxPoint x="607.81" y="440.8" /></Array></mx_Geometry></mxCell><mxCell id="edge5" style="edgeStyle=orthogonalEdgeStyle;" edge="1" parent="1" source="f18228a0bd1f43a8a152aa0e192faa66" target="c4296e0d54ad48eb9d3dc153b5885fb5"><mx_Geometry relative="1" as="geometry"><Array as="points"><mxPoint x="565.02" y="425.2" /><mxPoint x="584.4" y="425.2" /><mxPoint x="602" y="425.2" /><mxPoint x="602" y="260.8" /><mxPoint x="607.9" y="260.8" /></Array></mx_Geometry></mxCell><mxCell id="edge6" style="edgeStyle=orthogonalEdgeStyle;" edge="1" parent="1" source="31c18780213a4ddc9686e50e4af90972" target="0719e79f77734157a33899989d39cf25"><mx_Geometry relative="1" as="geometry"><Array as="points"><mxPoint x="565.09" y="170.8" /><mxPoint x="575.82" y="170.8" /><mxPoint x="584" y="170.8" /><mxPoint x="584" y="335.2" /><mxPoint x="607.8" y="335.2" /></Array></mx_Geometry></mxCell><mxCell id="edge7" style="edgeStyle=orthogonalEdgeStyle;" edge="1" parent="1" source="31c18780213a4ddc9686e50e4af90972" target="c4296e0d54ad48eb9d3dc153b5885fb5"><mx_Geometry relative="1" as="geometry"><Array as="points"><mxPoint x="565.06" y="155.2" /><mxPoint x="607.81" y="155.2" /></Array></mx_Geometry></mxCell><mxCell id="edge8" style="edgeStyle=orthogonalEdgeStyle;" edge="1" parent="1" source="7760dc1f2e2c4b97868b3b14c9464cdc" target="0719e79f77734157a33899989d39cf25"><mx_Geometry relative="1" as="geometry"><Array as="points"><mxPoint x="565.06" y="350.8" /><mxPoint x="607.81" y="350.8" /></Array></mx_Geometry></mxCell><mxCell id="edge9" style="edgeStyle=orthogonalEdgeStyle;" edge="1" parent="1" source="7760dc1f2e2c4b97868b3b14c9464cdc" target="c4296e0d54ad48eb9d3dc153b5885fb5"><mx_Geometry relative="1" as="geometry"><Array as="points"><mxPoint x="565.06" y="245.2" /><mxPoint x="607.81" y="245.2" /></Array></mx_Geometry></mxCell></root></mxGraphModel></diagram></mxfile>